<svg width="72" height="87" viewBox="0 0 72 87" fill="none" xmlns="http://www.w3.org/2000/svg">
<g clip-path="url(#clip0_19_2860)">
<path d="M71.19 15.02V43.22C71.19 43.22 72.18 78.35 35.57 86.76H35.62C-0.98996 78.34 4.27859e-05 43.22 4.27859e-05 43.22V15.02L35.57 0L71.19 15.02Z" fill="black"></path>
<path d="M35.9299 25.0901C25.5099 25.0901 17.0699 33.5401 17.0699 43.9501C17.0699 54.3601 25.5199 62.8101 35.9299 62.8101C46.3399 62.8101 54.7899 54.3601 54.7899 43.9501C54.7899 33.5401 46.3399 25.0901 35.9299 25.0901ZM33.9699 55.6901L24.8499 46.4201L28.6399 42.7001L33.2999 47.4301L42.4999 34.3601L46.8399 37.4101L33.9799 55.6901H33.9699Z" fill="white"></path>
</g>
<defs>
<clipPath id="clip0_19_2860">
<rect width="71.19" height="86.75" fill="white"></rect>
</clipPath>
</defs>
</svg>
