<svg width="73" height="91" viewBox="0 0 73 91" fill="none" xmlns="http://www.w3.org/2000/svg">
<g clip-path="url(#clip0_19_2863)">
<path d="M36.5 73.4037C56.6584 73.4037 73 56.9717 73 36.7018C73 16.432 56.6584 0 36.5 0C16.3416 0 0 16.432 0 36.7018C0 56.9717 16.3416 73.4037 36.5 73.4037Z" fill="black"></path>
<path d="M37.1091 47.3428L25.4065 53.5327L27.6469 40.4311L18.1739 31.1463L31.2578 29.2325L37.1091 17.312L42.9604 29.2325L56.0443 31.1463L46.5821 40.4311L48.8117 53.5327L37.1091 47.3428Z" fill="white"></path>
<path d="M49.0727 70.8774V91L36.5109 85.4335L24.0361 91V70.8774" fill="black"></path>
<path d="M49.051 61.5269H24.0361V71.1944H49.051V61.5269Z" fill="white"></path>
</g>
<defs>
<clipPath id="clip0_19_2863">
<rect width="73" height="91" fill="white"></rect>
</clipPath>
</defs>
</svg>
